<mxfile host="app.diagrams.net" modified="2023-05-01T03:17:52.160Z" agent="Mozilla/5.0 (Windows NT 10.0; Win64; x64) AppleWebKit/537.36 (KHTML, like Gecko) Chrome/112.0.0.0 Safari/537.36 Edg/112.0.1722.64" etag="eyqFLMSNpaEvzveH67pt" version="21.2.3" type="github">
  <diagram name="第 1 页" id="nhqsQBXHZAkjtcA0Pr6N">
    <mxGraphModel dx="1672" dy="1099" grid="1" gridSize="10" guides="1" tooltips="1" connect="1" arrows="1" fold="1" page="1" pageScale="1" pageWidth="827" pageHeight="1169" math="0" shadow="0">
      <root>
        <mxCell id="0" />
        <mxCell id="1" parent="0" />
        <mxCell id="Vk2px9OlasszMW7u7jl1-4" value="" style="edgeStyle=orthogonalEdgeStyle;rounded=0;orthogonalLoop=1;jettySize=auto;html=1;" edge="1" parent="1" source="Vk2px9OlasszMW7u7jl1-1" target="Vk2px9OlasszMW7u7jl1-3">
          <mxGeometry relative="1" as="geometry" />
        </mxCell>
        <mxCell id="Vk2px9OlasszMW7u7jl1-1" value="发起检索请求" style="rounded=1;whiteSpace=wrap;html=1;" vertex="1" parent="1">
          <mxGeometry x="340" y="20" width="120" height="60" as="geometry" />
        </mxCell>
        <mxCell id="Vk2px9OlasszMW7u7jl1-2" value="http://[ServerIp]:[port]/content_api/article/getDetail?id=[articleId]" style="text;html=1;strokeColor=none;fillColor=none;align=center;verticalAlign=middle;whiteSpace=wrap;rounded=0;" vertex="1" parent="1">
          <mxGeometry x="350" y="90" width="530" height="30" as="geometry" />
        </mxCell>
        <mxCell id="Vk2px9OlasszMW7u7jl1-6" value="" style="edgeStyle=orthogonalEdgeStyle;rounded=0;orthogonalLoop=1;jettySize=auto;html=1;" edge="1" parent="1" source="Vk2px9OlasszMW7u7jl1-3" target="Vk2px9OlasszMW7u7jl1-5">
          <mxGeometry relative="1" as="geometry" />
        </mxCell>
        <mxCell id="Vk2px9OlasszMW7u7jl1-3" value="通过文章id检索文章" style="rounded=1;whiteSpace=wrap;html=1;" vertex="1" parent="1">
          <mxGeometry x="340" y="160" width="120" height="60" as="geometry" />
        </mxCell>
        <mxCell id="Vk2px9OlasszMW7u7jl1-8" value="" style="edgeStyle=orthogonalEdgeStyle;rounded=0;orthogonalLoop=1;jettySize=auto;html=1;" edge="1" parent="1" source="Vk2px9OlasszMW7u7jl1-5" target="Vk2px9OlasszMW7u7jl1-7">
          <mxGeometry relative="1" as="geometry" />
        </mxCell>
        <mxCell id="Vk2px9OlasszMW7u7jl1-12" value="购买" style="edgeLabel;html=1;align=center;verticalAlign=middle;resizable=0;points=[];" vertex="1" connectable="0" parent="Vk2px9OlasszMW7u7jl1-8">
          <mxGeometry x="-0.1703" y="-1" relative="1" as="geometry">
            <mxPoint as="offset" />
          </mxGeometry>
        </mxCell>
        <mxCell id="Vk2px9OlasszMW7u7jl1-10" value="" style="edgeStyle=orthogonalEdgeStyle;rounded=0;orthogonalLoop=1;jettySize=auto;html=1;" edge="1" parent="1" source="Vk2px9OlasszMW7u7jl1-5" target="Vk2px9OlasszMW7u7jl1-9">
          <mxGeometry relative="1" as="geometry" />
        </mxCell>
        <mxCell id="Vk2px9OlasszMW7u7jl1-11" value="未购买" style="edgeLabel;html=1;align=center;verticalAlign=middle;resizable=0;points=[];" vertex="1" connectable="0" parent="Vk2px9OlasszMW7u7jl1-10">
          <mxGeometry x="-0.1051" y="2" relative="1" as="geometry">
            <mxPoint as="offset" />
          </mxGeometry>
        </mxCell>
        <mxCell id="Vk2px9OlasszMW7u7jl1-5" value="检索用户购买内容" style="whiteSpace=wrap;html=1;rounded=1;" vertex="1" parent="1">
          <mxGeometry x="340" y="300" width="120" height="60" as="geometry" />
        </mxCell>
        <mxCell id="Vk2px9OlasszMW7u7jl1-17" value="" style="edgeStyle=orthogonalEdgeStyle;rounded=0;orthogonalLoop=1;jettySize=auto;html=1;" edge="1" parent="1" source="Vk2px9OlasszMW7u7jl1-7" target="Vk2px9OlasszMW7u7jl1-16">
          <mxGeometry relative="1" as="geometry" />
        </mxCell>
        <mxCell id="Vk2px9OlasszMW7u7jl1-7" value="查询权限" style="whiteSpace=wrap;html=1;rounded=1;" vertex="1" parent="1">
          <mxGeometry x="340" y="440" width="120" height="60" as="geometry" />
        </mxCell>
        <mxCell id="Vk2px9OlasszMW7u7jl1-9" value="遍历文章内容和附件&lt;br&gt;去除超过一半的内容" style="whiteSpace=wrap;html=1;rounded=1;" vertex="1" parent="1">
          <mxGeometry x="540" y="300" width="120" height="60" as="geometry" />
        </mxCell>
        <mxCell id="Vk2px9OlasszMW7u7jl1-13" value="" style="endArrow=classic;html=1;rounded=0;entryX=1;entryY=0.5;entryDx=0;entryDy=0;exitX=0.48;exitY=1.007;exitDx=0;exitDy=0;exitPerimeter=0;" edge="1" parent="1" source="Vk2px9OlasszMW7u7jl1-9" target="Vk2px9OlasszMW7u7jl1-7">
          <mxGeometry width="50" height="50" relative="1" as="geometry">
            <mxPoint x="440" y="520" as="sourcePoint" />
            <mxPoint x="490" y="470" as="targetPoint" />
            <Array as="points">
              <mxPoint x="598" y="470" />
            </Array>
          </mxGeometry>
        </mxCell>
        <mxCell id="Vk2px9OlasszMW7u7jl1-14" value="&lt;font style=&quot;font-size: 11px;&quot;&gt;如果是创建用户或是管理员便拥有删除权限&lt;/font&gt;" style="text;html=1;strokeColor=none;fillColor=none;align=center;verticalAlign=middle;whiteSpace=wrap;rounded=0;" vertex="1" parent="1">
          <mxGeometry x="240" y="455" width="90" height="30" as="geometry" />
        </mxCell>
        <mxCell id="Vk2px9OlasszMW7u7jl1-16" value="返回" style="ellipse;whiteSpace=wrap;html=1;rounded=1;" vertex="1" parent="1">
          <mxGeometry x="360" y="570" width="80" height="80" as="geometry" />
        </mxCell>
      </root>
    </mxGraphModel>
  </diagram>
</mxfile>
